<?xml version="1.0" standalone="no"?>
<!DOCTYPE svg PUBLIC "-//W3C//DTD SVG 20010904//EN"
 "http://www.w3.org/TR/2001/REC-SVG-20010904/DTD/svg10.dtd">
<svg version="1.0" xmlns="http://www.w3.org/2000/svg"
 width="1232.000000pt" height="1280.000000pt" viewBox="0 0 1232.000000 1280.000000"
 preserveAspectRatio="xMidYMid meet">
<g transform="translate(0.000000,1280.000000) scale(0.100000,-0.100000)"
fill="#000000" stroke="none">
<path d="M6390 12716 c-14 -8 -61 -17 -105 -20 -196 -15 -381 -39 -404 -53
-14 -9 -59 -18 -108 -21 -78 -5 -86 -7 -96 -30 -10 -22 -15 -24 -61 -18 -50 6
-126 -10 -126 -26 0 -12 -34 -10 -47 3 -9 9 -29 2 -78 -26 -70 -38 -75 -57
-18 -59 30 -1 44 -29 24 -49 -11 -11 -24 -1 -33 26 -2 4 -70 -17 -151 -48
-156 -58 -170 -61 -213 -45 -41 16 -19 30 85 51 86 18 98 23 209 101 113 80
116 83 84 86 -18 2 -70 -9 -115 -24 -65 -21 -95 -38 -145 -81 l-62 -55 -27 17
c-25 17 -32 17 -142 0 -91 -14 -130 -15 -181 -7 -60 9 -74 7 -208 -30 -91 -25
-154 -37 -171 -33 -19 4 -47 -3 -91 -24 -34 -16 -88 -33 -119 -37 -31 -3 -76
-17 -100 -30 -32 -18 -47 -21 -57 -13 -10 8 -24 4 -58 -16 -25 -15 -50 -24
-55 -20 -21 12 4 37 72 72 39 19 88 46 109 59 44 28 48 29 48 9 0 -20 25 -19
97 5 56 20 93 50 126 107 19 31 -368 -119 -478 -186 -36 -21 -102 -53 -148
-71 -143 -55 -344 -162 -314 -168 56 -11 -42 -77 -114 -75 -29 0 -52 -12 -120
-63 -46 -35 -93 -64 -104 -64 -11 0 -65 -31 -120 -69 -55 -39 -136 -92 -180
-120 -179 -111 -584 -451 -797 -668 -47 -48 -134 -144 -193 -213 -99 -117
-104 -125 -80 -128 31 -4 33 -31 4 -58 -12 -10 -44 -52 -71 -91 -27 -40 -52
-73 -57 -73 -5 0 -19 -24 -31 -52 -12 -29 -31 -63 -42 -75 -11 -11 -18 -29
-16 -40 4 -19 32 -21 141 -9 26 3 47 3 47 -1 0 -4 -10 -22 -22 -40 -16 -23
-29 -32 -42 -29 -10 3 -43 -7 -73 -22 -57 -28 -72 -24 -73 22 0 16 -65 116
-75 116 -2 0 -43 -57 -91 -127 -49 -71 -109 -155 -134 -188 -79 -102 -152
-217 -166 -259 -6 -23 -63 -135 -124 -251 -62 -115 -139 -262 -173 -325 -33
-63 -68 -126 -78 -141 -56 -81 -241 -611 -324 -928 -115 -438 -158 -702 -202
-1221 -24 -290 -19 -814 10 -955 4 -16 11 -86 17 -155 6 -69 17 -152 25 -185
7 -33 25 -143 40 -245 21 -142 46 -254 107 -480 44 -162 86 -313 93 -335 163
-478 206 -588 339 -858 75 -153 136 -280 136 -282 0 -9 334 -541 350 -558 16
-18 17 -16 23 45 5 60 1 76 -93 354 -54 160 -114 326 -134 368 l-35 77 11 78
11 77 -102 225 c-55 124 -101 235 -101 247 0 13 25 121 55 241 l55 219 -60
264 c-33 144 -91 373 -130 508 -68 234 -71 249 -67 330 4 78 58 301 100 405 6
16 91 178 189 360 134 248 215 413 323 661 151 347 155 359 137 456 l-7 38
-174 -80 c-96 -44 -181 -80 -188 -80 -20 0 -15 34 10 71 17 26 22 44 19 72 -4
35 -2 37 37 53 37 15 55 34 31 34 -5 0 -14 9 -20 20 -8 16 -6 22 12 32 13 7
23 20 23 28 0 9 37 33 92 60 71 35 132 78 267 190 115 95 239 185 357 260
l181 115 114 163 c63 89 114 168 114 174 0 12 -23 51 -92 157 l-49 74 18 75
c9 41 23 76 30 79 7 3 32 -2 55 -11 71 -26 278 -56 394 -57 60 -1 149 -4 198
-8 l90 -6 40 -67 c39 -66 41 -67 123 -99 47 -18 83 -38 83 -45 0 -8 -21 -25
-47 -38 -91 -46 -89 -42 -38 -118 24 -36 49 -69 54 -72 5 -4 35 3 65 15 41 15
68 34 99 70 54 62 72 64 64 7 -56 -410 -70 -552 -59 -601 14 -65 229 -828 235
-833 4 -5 219 66 230 76 15 13 66 230 112 475 34 185 49 243 62 252 10 7 160
110 333 230 l314 218 88 125 c48 69 92 126 96 128 5 1 32 -8 61 -22 l52 -24
67 20 c37 11 69 22 70 23 2 2 -17 33 -42 68 -75 105 -63 110 73 34 l94 -52 28
-90 c27 -87 32 -94 119 -187 l90 -96 0 -176 0 -176 69 0 68 0 62 75 c34 41 68
75 74 75 7 0 31 -22 54 -48 46 -55 38 -15 103 -503 l30 -227 -25 -103 c-14
-57 -25 -111 -25 -119 0 -8 45 -60 99 -115 l99 -100 57 -185 c32 -102 61 -192
66 -201 4 -8 61 -52 126 -98 102 -71 121 -81 148 -75 16 3 33 9 37 13 4 3 -14
87 -40 186 l-47 180 -75 78 c-51 54 -98 92 -147 119 -40 22 -82 47 -94 57 -20
16 -149 335 -149 368 0 29 123 343 135 343 6 0 25 -20 43 -45 26 -37 50 -54
144 -101 63 -32 145 -83 186 -116 50 -42 79 -59 92 -55 17 4 18 2 10 -14 -10
-19 13 -154 30 -172 4 -4 25 19 46 52 21 33 45 63 53 66 7 3 29 -4 47 -16 l34
-21 146 117 c140 112 145 117 139 148 -2 18 -12 102 -20 187 l-15 155 -131
130 -132 130 -38 100 c-21 55 -39 105 -39 111 0 7 51 58 114 113 l115 102 103
-3 103 -3 3 -40 4 -40 16 35 c16 34 20 35 87 44 39 4 110 22 158 39 l89 30 -7
44 c-7 51 8 57 46 17 46 -50 48 -50 196 25 l138 69 73 119 c45 74 96 142 133
179 51 49 71 80 120 183 33 68 58 126 56 128 -2 1 -30 8 -63 13 -128 22 -130
26 -42 71 45 23 58 33 47 40 -8 5 -51 30 -96 56 -46 27 -83 54 -83 62 0 8 6
11 15 7 34 -13 137 -37 142 -33 2 3 -51 64 -119 137 -68 73 -124 138 -126 145
-2 8 47 56 109 107 l113 93 -151 5 -150 5 -52 35 c-28 19 -51 42 -51 50 0 40
234 230 283 230 26 0 43 -71 28 -121 -7 -23 -10 -43 -8 -45 3 -3 47 18 99 46
52 27 101 50 109 50 8 0 45 -29 83 -63 l69 -63 -22 -21 -23 -21 29 -5 c15 -3
47 -9 71 -12 52 -8 52 -9 88 -175 14 -69 30 -129 35 -135 14 -14 191 76 186
95 -11 40 -172 283 -207 311 -21 17 -41 37 -44 45 -3 7 30 60 73 116 43 57 91
123 107 148 16 25 33 48 38 51 4 4 57 10 117 14 l108 7 10 31 c5 18 31 102 56
188 l46 157 -84 168 -85 169 -69 34 -70 33 -42 -22 c-45 -22 -71 -21 -71 4 0
9 -16 19 -40 26 -22 5 -58 15 -80 20 -21 6 -42 15 -45 21 -7 10 107 226 136
258 13 14 45 20 150 30 127 12 138 12 216 -8 45 -12 94 -21 109 -21 l27 0 -33
23 c-35 23 -67 94 -56 122 8 21 64 19 111 -5 45 -23 54 -21 25 5 -32 29 -26
47 17 43 l37 -3 76 -165 77 -164 197 -173 c108 -95 201 -173 205 -173 5 0 -4
50 -19 110 -36 141 -64 178 -192 251 -86 50 -197 148 -198 176 0 15 92 45 113
37 25 -9 21 0 -23 51 -22 25 -40 50 -40 55 0 14 -130 77 -174 85 -26 5 -36 12
-32 21 3 8 -6 20 -23 28 -15 8 -33 22 -40 30 -11 13 -421 156 -447 156 -4 0 1
-6 12 -14 32 -24 9 -29 -73 -17 -53 8 -79 8 -81 1 -6 -16 -24 -12 -121 25 -76
30 -103 35 -171 35 -55 0 -115 9 -183 26 -57 14 -116 23 -133 21 -18 -3 -36
-2 -40 3 -5 5 -40 12 -79 16 -64 6 -69 6 -56 -10 8 -9 11 -19 7 -23 -3 -4 -57
-13 -119 -20 l-112 -13 -256 50 c-258 50 -383 62 -392 38 -3 -10 -14 -9 -49 4
-41 15 -53 15 -123 1 -76 -14 -104 -11 -75 7 8 6 51 22 94 36 75 25 78 27 55
39 -24 13 -149 35 -191 35 -13 -1 -34 -7 -48 -14z m-3955 -1546 c3 -5 -12 -18
-33 -29 -22 -11 -42 -29 -45 -39 -2 -11 -32 -35 -66 -53 -66 -37 -67 -38 -76
-119 l-6 -55 48 -25 c79 -41 105 -123 59 -186 -14 -18 -16 -18 -44 -2 -29 17
-32 17 -77 -3 -55 -25 -75 -20 -75 19 0 25 -6 31 -41 45 -35 14 -39 18 -30 35
6 11 29 34 51 52 28 22 40 39 40 57 0 24 -2 25 -37 20 -110 -17 -143 -19 -143
-9 0 11 164 201 202 235 28 24 35 22 36 -14 1 -25 -6 -34 -34 -51 -30 -18 -54
-45 -54 -62 0 -3 15 0 33 6 34 11 77 51 77 72 0 23 44 54 120 85 84 34 87 35
95 21z m489 -22 c22 -31 20 -53 -6 -89 -27 -37 -145 -99 -187 -99 -34 0 -33 2
-59 -126 l-19 -91 29 -32 c16 -18 26 -35 24 -40 -3 -4 -32 -16 -66 -26 -33
-10 -64 -23 -69 -29 -4 -6 -29 -65 -55 -131 -26 -66 -53 -125 -59 -131 -14
-13 -146 -54 -175 -54 -18 0 -22 9 -27 58 -4 31 -9 65 -12 75 -3 13 11 32 48
65 140 124 132 113 136 178 3 38 21 100 51 176 l45 118 115 72 c114 72 221
126 254 127 9 1 24 -9 32 -21z m-1043 -1487 c4 -3 22 -73 41 -156 l34 -150 59
-32 c33 -17 61 -37 63 -43 3 -7 -38 -54 -89 -106 -105 -105 -109 -107 -204
-74 -99 34 -98 30 -86 248 10 172 27 276 55 321 7 11 114 5 127 -8z m-1466
-4281 c3 -5 1 -10 -4 -10 -6 0 -11 5 -11 10 0 6 2 10 4 10 3 0 8 -4 11 -10z"/>
<path d="M4901 12582 c-44 -14 -51 -19 -39 -29 11 -10 25 -7 66 12 81 38 67
46 -27 17z"/>
<path d="M8770 11620 c0 -25 367 -530 385 -530 19 0 38 27 29 42 -4 7 -38 52
-76 100 -37 48 -68 92 -68 98 0 13 16 13 42 -1 16 -9 18 -8 11 3 -12 20 -308
308 -316 308 -4 0 -7 -9 -7 -20z"/>
<path d="M9180 11005 c0 -2 9 -28 21 -57 12 -29 24 -73 28 -98 l6 -45 83 -22
82 -21 40 46 c22 26 40 50 40 54 0 3 -33 19 -72 34 -40 15 -105 46 -144 70
-67 42 -84 50 -84 39z"/>
<path d="M9220 10745 c0 -9 5 -15 11 -13 6 2 11 8 11 13 0 5 -5 11 -11 13 -6
2 -11 -4 -11 -13z"/>
<path d="M9296 10649 c-3 -19 -8 -90 -11 -159 -4 -68 -9 -128 -11 -132 -3 -4
-33 -8 -68 -8 -62 0 -64 -1 -178 -79 -70 -49 -136 -104 -168 -141 -29 -33 -51
-62 -49 -64 2 -2 65 9 139 25 74 16 143 29 152 29 9 0 32 -21 50 -47 l32 -48
14 60 c7 33 18 62 23 66 6 3 47 -3 90 -14 77 -19 81 -19 119 -2 35 16 40 22
40 50 0 35 -36 318 -45 350 -3 11 -32 49 -64 84 l-60 64 -5 -34z"/>
<path d="M8737 10011 c-15 -10 -30 -21 -33 -24 -7 -7 89 -158 112 -178 11 -9
17 -5 29 24 8 20 15 46 15 58 0 26 -70 139 -85 138 -5 0 -22 -8 -38 -18z"/>
<path d="M8976 10011 c-60 -21 -67 -34 -26 -51 34 -14 45 -8 73 39 21 35 20
36 -47 12z"/>
<path d="M8034 9098 l-46 -72 33 -68 c20 -42 36 -63 40 -56 15 29 69 242 65
255 -3 7 -15 13 -26 13 -14 0 -34 -21 -66 -72z"/>
<path d="M6923 8628 c-15 -21 -63 -106 -63 -113 0 -8 116 4 146 15 18 7 44 65
44 99 0 16 -115 15 -127 -1z"/>
<path d="M8087 8473 c-2 -5 -17 -54 -32 -111 l-28 -103 53 -134 53 -134 81
-27 c45 -15 87 -29 94 -32 8 -3 12 6 12 27 0 26 -4 31 -24 31 -32 0 -45 14
-81 89 l-29 62 24 137 c13 75 25 149 28 163 3 21 -1 27 -20 32 -32 9 -126 9
-131 0z"/>
<path d="M8396 7949 c16 -17 41 -40 56 -50 l27 -20 -6 38 c-8 52 -19 63 -66
63 l-41 0 30 -31z"/>
<path d="M8149 7892 c27 -53 39 -59 51 -27 14 37 13 42 -14 49 -13 3 -32 9
-41 12 -15 6 -14 2 4 -34z"/>
<path d="M8300 7705 c0 -30 4 -55 8 -55 11 0 77 69 71 75 -3 2 -22 11 -42 20
l-37 15 0 -55z"/>
<path d="M7979 7643 c-18 -26 -53 -77 -78 -113 -53 -75 -44 -71 61 23 68 61
77 73 72 96 -11 45 -21 44 -55 -6z"/>
<path d="M8392 7587 c-18 -18 -32 -37 -31 -42 0 -6 13 -20 29 -33 l29 -23 6
38 c3 21 8 50 10 66 6 35 -4 34 -43 -6z"/>
<path d="M8676 7452 c-3 -5 -45 -33 -93 -62 -48 -29 -90 -55 -92 -56 -2 -2
119 -166 166 -223 8 -10 14 11 20 73 3 37 10 69 14 72 5 2 21 -14 36 -37 l27
-42 13 29 c19 44 16 56 -32 155 -50 103 -51 104 -59 91z"/>
<path d="M3766 7372 l-36 -71 25 -81 c14 -44 29 -80 33 -80 4 0 36 28 70 63
l62 62 -59 89 -59 89 -36 -71z"/>
<path d="M8397 7346 c-26 -30 -47 -57 -47 -61 0 -8 27 1 86 26 42 19 43 21 32
47 -20 45 -23 45 -71 -12z"/>
<path d="M7671 7093 c-92 -99 -105 -109 -158 -125 -44 -13 -93 -43 -200 -122
l-143 -106 0 -65 c0 -50 -4 -67 -16 -72 -8 -3 -52 9 -96 26 -44 17 -84 29 -87
26 -3 -4 -18 -65 -32 -136 l-26 -130 61 -136 61 -136 80 -29 c82 -30 352 -98
392 -98 13 0 51 14 87 32 l64 31 12 96 c13 93 16 100 103 256 50 88 95 164
101 168 6 4 30 5 54 2 23 -4 42 -3 42 1 0 4 -43 64 -95 134 -52 70 -95 134
-95 142 0 19 50 64 143 132 37 28 67 53 67 57 0 3 -36 17 -81 29 -86 25 -101
38 -114 98 -4 17 -10 32 -15 32 -5 0 -54 -48 -109 -107z"/>
<path d="M5380 7055 c0 -4 153 -222 340 -484 l341 -476 172 -153 172 -154 54
7 c30 3 56 7 58 8 2 3 33 244 33 263 0 6 -35 21 -77 34 -43 12 -81 25 -85 29
-4 4 -12 50 -18 104 -8 79 -16 110 -45 167 l-35 69 -71 3 -71 3 21 27 21 26
-295 250 -294 249 -93 12 c-51 7 -101 15 -110 17 -10 3 -18 2 -18 -1z"/>
<path d="M8360 6556 l-245 -41 -67 -209 -68 -209 39 -131 c32 -110 41 -131 59
-134 23 -4 22 -7 61 158 33 132 41 160 50 160 5 0 26 -43 47 -95 l37 -95 59 0
c32 0 58 3 58 8 0 4 -33 65 -74 136 -41 72 -72 135 -70 141 3 7 32 25 65 41
33 15 57 30 52 31 -5 2 -47 -6 -94 -17 -73 -17 -85 -18 -95 -5 -12 16 -49 183
-42 190 3 3 101 8 219 11 236 7 214 1 270 77 26 34 46 35 -261 -17z"/>
<path d="M8926 6515 c-10 -26 5 -47 28 -41 11 3 28 6 36 6 11 1 10 4 -5 16
-39 30 -53 34 -59 19z"/>
<path d="M9345 6344 c-31 -26 -53 -50 -48 -54 4 -4 61 -21 127 -38 65 -17 121
-33 124 -37 10 -10 -12 -23 -96 -55 -80 -31 -83 -33 -69 -53 7 -12 23 -39 36
-59 12 -21 26 -38 30 -38 4 0 24 23 45 51 20 27 43 48 49 46 7 -2 14 -23 17
-47 l5 -43 184 -83 c102 -46 188 -87 193 -92 7 -7 48 -215 48 -244 0 -5 -6 -8
-13 -8 -13 0 -57 -40 -57 -52 0 -11 116 1 152 16 44 19 47 17 88 -64 l27 -55
79 4 c44 2 81 5 83 7 3 2 -11 20 -29 39 -21 22 -30 39 -24 44 10 10 189 81
205 81 5 0 62 -65 128 -144 l120 -143 103 -5 c57 -3 105 -4 107 -2 2 2 -41 56
-95 120 -162 191 -147 162 -129 239 8 36 15 74 15 83 0 12 -93 82 -267 204
-257 178 -345 227 -539 304 -5 3 -66 -40 -135 -96 -68 -55 -131 -99 -139 -97
-8 1 -32 46 -55 105 l-40 103 -79 55 c-44 30 -83 54 -87 54 -4 0 -33 -21 -64
-46z"/>
<path d="M6506 6239 c-14 -11 -26 -24 -26 -28 0 -10 90 -74 96 -68 4 4 -34
117 -40 117 -2 0 -15 -9 -30 -21z"/>
<path d="M8968 6085 c-6 -14 -9 -27 -7 -29 2 -2 49 -9 104 -15 55 -7 112 -14
128 -17 24 -5 27 -2 27 19 0 36 -15 43 -116 56 -121 15 -123 15 -136 -14z"/>
<path d="M11055 5831 c-3 -6 -34 -11 -68 -12 l-62 -1 50 -18 c66 -25 70 -24
84 6 12 26 9 45 -4 25z"/>
<path d="M6583 5732 c-40 -20 -73 -39 -73 -42 0 -10 913 -210 956 -210 12 0
14 10 12 42 l-3 43 -185 76 -185 75 -215 27 c-118 15 -219 27 -225 27 -5 -1
-43 -18 -82 -38z"/>
<path d="M8112 5489 c-7 -12 -11 -23 -9 -26 3 -2 29 -5 58 -5 37 -1 74 6 119
24 l65 27 -110 0 c-101 1 -111 -1 -123 -20z"/>
<path d="M7797 5493 c-10 -9 -9 -43 1 -43 18 0 102 32 108 41 6 10 -99 13
-109 2z"/>
<path d="M8661 5471 c-25 -4 -48 -22 -90 -70 l-56 -64 130 68 c72 38 132 70
134 72 7 5 -81 1 -118 -6z"/>
<path d="M9180 5160 c13 -23 23 -25 39 -7 14 17 4 27 -26 27 -21 0 -22 -3 -13
-20z"/>
<path d="M9349 5131 c11 -21 17 -41 14 -45 -4 -3 -40 -6 -82 -6 l-76 0 -70
-91 c-38 -49 -70 -93 -70 -97 0 -4 6 -38 13 -76 8 -40 9 -73 4 -78 -5 -5 -40
5 -82 23 l-74 31 -37 -43 c-34 -40 -37 -41 -47 -23 -5 10 -13 49 -17 86 l-7
66 -60 7 c-33 4 -64 3 -68 -1 -5 -5 -28 -45 -51 -89 -24 -44 -48 -83 -53 -87
-6 -4 -40 -17 -76 -29 -36 -12 -71 -26 -77 -32 -9 -6 -13 -37 -13 -88 0 -43
-4 -80 -9 -83 -5 -3 -21 23 -36 59 -16 36 -31 65 -35 65 -4 0 -54 -70 -110
-156 -57 -85 -107 -157 -111 -159 -4 -3 -104 -27 -224 -55 -196 -45 -231 -57
-363 -118 l-146 -69 -39 -114 -38 -114 30 -96 c17 -52 31 -100 31 -107 0 -8
-17 -12 -45 -12 -31 0 -45 -4 -45 -14 0 -7 40 -127 90 -267 49 -140 90 -265
90 -278 0 -13 -16 -68 -36 -123 -19 -55 -34 -102 -31 -104 7 -7 201 -64 219
-64 10 0 62 24 115 54 87 48 128 62 380 130 205 55 345 86 518 115 l237 39
101 -34 c55 -19 104 -40 109 -46 4 -7 24 -61 44 -120 19 -60 40 -108 46 -108
6 0 51 43 100 95 121 128 143 129 62 4 -63 -98 -66 -110 -19 -75 35 27 39 28
51 12 25 -35 46 -153 43 -243 l-4 -87 84 -37 c83 -37 86 -37 120 -22 63 27 74
26 105 -6 17 -17 34 -31 38 -31 5 0 68 27 141 61 l132 61 95 126 c53 70 200
258 327 417 l231 290 42 173 42 174 -17 86 c-38 195 -33 182 -69 182 -51 0
-56 12 -56 139 l0 114 -79 74 -79 73 5 208 5 207 -60 32 c-67 36 -63 28 -78
193 -7 77 -47 181 -64 164 -4 -5 -27 -99 -50 -209 l-43 -200 -95 -137 c-53
-76 -99 -138 -104 -138 -13 0 -378 290 -378 301 0 5 36 66 80 135 44 70 77
131 74 135 -3 5 -22 9 -43 9 -21 0 -109 25 -196 55 -86 30 -161 55 -166 55 -5
0 -1 -17 10 -39z"/>
<path d="M1236 4974 c-3 -43 -6 -98 -6 -123 0 -44 -3 -49 -80 -123 -44 -42
-80 -81 -80 -88 0 -6 23 -91 51 -188 43 -146 53 -198 60 -293 l8 -116 75 -150
c74 -149 75 -150 113 -156 21 -4 53 -7 72 -7 l34 0 -7 53 c-4 28 -38 243 -77
477 -38 234 -69 433 -69 443 0 11 9 26 20 35 19 17 19 19 -40 161 -32 79 -61
145 -63 147 -2 3 -7 -30 -11 -72z"/>
<path d="M11173 2443 c-51 -56 -83 -100 -88 -120 -4 -20 -3 -33 3 -33 13 0
212 189 212 201 0 5 -7 9 -15 9 -7 0 -18 7 -23 16 -7 12 -24 -2 -89 -73z"/>
<path d="M9567 2223 c-7 -11 -47 -166 -44 -169 8 -8 104 -13 113 -7 6 4 36 43
67 85 47 64 54 78 39 82 -37 10 -170 17 -175 9z"/>
<path d="M10919 2204 c-7 -9 -121 -97 -254 -197 -132 -99 -242 -182 -244 -184
-13 -10 12 -12 54 -4 40 7 56 18 94 59 25 28 67 62 94 77 27 16 47 34 47 44 0
24 20 41 48 41 28 0 167 118 177 151 9 27 1 33 -16 13z"/>
<path d="M5620 651 c0 -6 158 -80 213 -101 36 -13 28 -26 -22 -34 -27 -4 -54
-1 -82 11 -47 18 -51 18 -231 -38 -77 -24 -98 -34 -98 -49 0 -10 -21 -37 -46
-59 -49 -43 -71 -48 -134 -32 -19 5 -48 12 -64 15 -15 4 -51 29 -80 55 l-51
48 -128 7 c-164 9 -355 31 -434 49 l-63 15 6 -23 c5 -19 0 -27 -25 -40 -17 -8
-31 -18 -31 -22 0 -4 15 -19 33 -34 37 -33 27 -35 -53 -14 -69 19 -70 19 -40
-5 33 -25 166 -58 180 -44 7 7 32 8 69 3 65 -9 307 -72 361 -94 19 -8 175 -35
345 -61 251 -38 323 -52 380 -76 64 -27 89 -30 329 -50 l260 -20 130 21 c108
18 135 26 153 45 13 15 39 26 67 30 26 4 44 11 41 15 -6 10 -53 15 -353 41
-128 10 -236 22 -242 25 -18 11 -80 123 -75 136 3 8 26 28 51 44 65 44 58 65
-30 87 -38 10 -71 20 -75 23 -9 10 22 25 54 25 43 0 23 13 -83 54 -84 32 -232
62 -232 47z"/>
<path d="M6103 553 c-32 -4 -47 -23 -20 -23 23 0 43 -32 71 -115 43 -124 38
-120 158 -135 82 -10 122 -10 193 0 107 14 815 26 815 14 0 -12 -45 -54 -58
-54 -6 0 -13 -4 -16 -8 -9 -14 193 -2 265 15 55 13 91 15 225 7 93 -5 158 -13
157 -19 -1 -5 -67 -31 -148 -58 -80 -27 -144 -51 -141 -54 7 -8 153 25 186 42
16 8 35 15 42 15 7 0 30 5 51 11 30 8 37 15 37 34 0 17 7 26 23 30 12 3 92 22
177 42 146 36 155 39 158 63 1 14 -1 30 -6 37 -4 6 -54 20 -112 30 l-105 18 0
30 0 30 -145 21 -145 22 -145 -24 c-123 -20 -181 -24 -378 -24 l-234 0 -89 31
-90 31 -110 -27 -110 -28 -183 27 c-172 24 -244 29 -323 19z"/>
<path d="M7448 103 c6 -2 18 -2 25 0 6 3 1 5 -13 5 -14 0 -19 -2 -12 -5z"/>
<path d="M7360 90 c-24 -8 -24 -8 5 -9 17 0 37 4 45 9 12 8 11 10 -5 9 -11 -1
-31 -5 -45 -9z"/>
</g>
</svg>
